PathFileType	4	(X/Y/Z)	/Users/niels/Desktop/University/Third Semester/Perception and Action/Exam/Gymnastics Motion Tracking/Code for Gym Tracking/Analyzed Data/Webcam_Backflip/id5_5_trajectory_Sports2D/id5_5_trajectory_Sports2D_px_person00.trc
DataRate	CameraRate	NumFrames	NumMarkers	Units	OrigDataRate	OrigDataStartFrame	OrigNumFrames
29.774436090225564	29.774436090225564	9	22	m	29.774436090225564	33	133
Frame#	Time	Hip			RHip			RKnee			RAnkle			RBigToe			RSmallToe			RHeel			LHip			LKnee			LAnkle			LBigToe			LSmallToe			LHeel			Neck			Head			Nose			RShoulder			RElbow			RWrist			LShoulder			LElbow			LWrist		
		X1	Y1	Z1	X2	Y2	Z2	X3	Y3	Z3	X4	Y4	Z4	X5	Y5	Z5	X6	Y6	Z6	X7	Y7	Z7	X8	Y8	Z8	X9	Y9	Z9	X10	Y10	Z10	X11	Y11	Z11	X12	Y12	Z12	X13	Y13	Z13	X14	Y14	Z14	X15	Y15	Z15	X16	Y16	Z16	X17	Y17	Z17	X18	Y18	Z18	X19	Y19	Z19	X20	Y20	Z20	X21	Y21	Z21	X22	Y22	Z22
33	1.1083333333333334	0.7655183911499348	-0.43261642110216536	0.0	0.7424343451302311	-0.4331488036818842	0.0	0.6654100665892901	-0.3945910412220207	0.0	0.7321095222933983	-0.34308062326171884	0.0	0.744829915315171	-0.33039338268584423	0.0	0.7442455162051725	-0.33186142256914797	0.0	0.7434357972352995	-0.3437125970650968	0.0	0.7881386366508779	-0.4339045973713831	0.0	0.7432321782510537	-0.40173694981068614	0.0	0.7589340734315257	-0.35856282522604105	0.0	0.7558917702671925	-0.3475348246773086	0.0	0.769314396826475	-0.36703711836960573	0.0	0.7651306566483037	-0.33920505390123573	0.0	0.7833420471840501	-0.6056913372369089	0.0	0.8089374730788107	-0.668860932693959	0.0	0.7740687839626874	-0.6544936776761909	0.0	0.7428935154048889	-0.5844438551383336	0.0	0.6678122339181591	-0.5339640873040201	0.0	0.6197279356967567	-0.5814049018375211	0.0	0.8101054823902649	-0.5838227252989943	0.0	0.7995436079180618	-0.5314162953241294	0.0	0.7230177103118153	-0.5423119504103355	0.0
34	1.141919191919192	0.7552120350689188	-0.44173955045464225	0.0	0.7340315317666086	-0.44457575001192257	0.0	0.6436709020767056	-0.43595922320084246	0.0	0.6945373302336818	-0.36111720358081034	0.0	0.6932037812443452	-0.35221989573409745	0.0	0.6914931608097192	-0.3512560358787955	0.0	0.7047267913393518	-0.356629709648319	0.0	0.777028033693004	-0.43893279158462134	0.0	0.7222167395893399	-0.43038377104561204	0.0	0.7223305811260252	-0.3796133743913951	0.0	0.7048082285667081	-0.3707161661489902	0.0	0.7183738218598189	-0.38717179085479825	0.0	0.7271223847828565	-0.35388833687321664	0.0	0.791762026801587	-0.6044819000425062	0.0	0.8236202606892774	-0.6653811338569617	0.0	0.7870630827592789	-0.6531750163891924	0.0	0.7512392969196705	-0.5850563631199042	0.0	0.6696820785503484	-0.5423072594442703	0.0	0.6235339985137732	-0.5944640393018251	0.0	0.8160623230038354	-0.58192879614681	0.0	0.7968508577846307	-0.5356075284206323	0.0	0.7339976156583856	-0.550558346506901	0.0
35	1.1755050505050506	0.7435614529041663	-0.45330513887547247	0.0	0.7246122324226304	-0.45820893138844077	0.0	0.6292264471888661	-0.4803635708995287	0.0	0.6559330702897115	-0.3935149728522016	0.0	0.6418824183636952	-0.3930597731272863	0.0	0.6388109550874008	-0.3895180329834172	0.0	0.6631743224389018	-0.3839832183321679	0.0	0.7646904914206606	-0.44721565558719056	0.0	0.7061649281980797	-0.4631555721418213	0.0	0.6898395065612294	-0.41424884819268604	0.0	0.6570424739305804	-0.41007835832258976	0.0	0.6698486317086507	-0.41956573734234665	0.0	0.6908489255700829	-0.3845921825321625	0.0	0.7990984133554888	-0.6024027465597994	0.0	0.8370191603633794	-0.6610333094629259	0.0	0.7997099183530476	-0.6500686270894578	0.0	0.7583881351985613	-0.5855158544312584	0.0	0.6712420334135655	-0.5522873811975396	0.0	0.6268740272849624	-0.60847886524624	0.0	0.8204900469645198	-0.57976330099164	0.0	0.7934777469364014	-0.5419851741080983	0.0	0.7423548668915563	-0.562665692057752	0.0
36	1.2090909090909092	0.7303073056047644	-0.4685536284495692	0.0	0.713555283328644	-0.47476046461359445	0.0	0.6211500135622476	-0.5246188975944391	0.0	0.6184613610483534	-0.44073704187153734	0.0	0.5953799346089544	-0.45268520204760393	0.0	0.5910691338005187	-0.4470143396788923	0.0	0.6210016960427556	-0.4275903896358531	0.0	0.7510033982556252	-0.46020677226971185	0.0	0.6924824822147166	-0.4993499625570399	0.0	0.6617009048943749	-0.4613594860655419	0.0	0.6144225518668057	-0.46459298244374475	0.0	0.626796674591964	-0.4665660240195825	0.0	0.6565459144591028	-0.4315899772815034	0.0	0.8045202335202135	-0.6001320375870614	0.0	0.8488779619014933	-0.6554733357194064	0.0	0.8109017900351744	-0.6457505489542863	0.0	0.7637455117448645	-0.5865994822449156	0.0	0.6722288410092933	-0.5647304739265604	0.0	0.6298447047196669	-0.6249144938227433	0.0	0.8227990114998059	-0.5780011066898533	0.0	0.7901488178215785	-0.5517864993257052	0.0	0.7474252329231458	-0.5799903408109953	0.0
37	1.2426767676767678	0.7155366483194837	-0.48888474802095194	0.0	0.7007486675050446	-0.49507537452254063	0.0	0.6175257954567391	-0.5671150475178423	0.0	0.5857135230924062	-0.5015825366312407	0.0	0.5592914942686972	-0.5276505673770009	0.0	0.5535182109093891	-0.5207825778075196	0.0	0.5824385028626575	-0.4873068037696086	0.0	0.7358611827930139	-0.47952439795189244	0.0	0.6783785328221444	-0.5398661543428402	0.0	0.6375420460604369	-0.5195775536521978	0.0	0.5794074111063633	-0.5327928145597466	0.0	0.5925686069296544	-0.5290805723980876	0.0	0.6250091218438013	-0.49381112599482985	0.0	0.8069562626724059	-0.5986620328461997	0.0	0.8584573595073548	-0.6485188584790763	0.0	0.8194161336876284	-0.6413451580479453	0.0	0.7665051418211137	-0.5892640800709054	0.0	0.6724310314141714	-0.5803920912293459	0.0	0.6329313833786347	-0.6450148740915574	0.0	0.8222136798749893	-0.5776171757322142	0.0	0.7864152259065186	-0.5660505429339509	0.0	0.749458848795591	-0.6027187000670801	0.0
38	1.2762626262626262	0.6996205510721941	-0.515375004742187	0.0	0.6864488044308934	-0.520125842272482	0.0	0.6159729778297341	-0.6081813339083809	0.0	0.5610028642260094	-0.5731487471988534	0.0	0.5374619694747818	-0.612048547828259	0.0	0.5298477836578224	-0.6051279171738582	0.0	0.5518649619487489	-0.5606738644488412	0.0	0.7192884530703166	-0.5064311499241922	0.0	0.6630623605376192	-0.5851619103362866	0.0	0.6164579333277438	-0.5869391420736163	0.0	0.5553924882463829	-0.6115245413790643	0.0	0.570216682933333	-0.6042354989199809	0.0	0.5972865411857976	-0.5681508410861393	0.0	0.8054157815802743	-0.599293120274893	0.0	0.8644767093106305	-0.640649764790053	0.0	0.8242270847926437	-0.6383692037463906	0.0	0.7657918069774983	-0.5946143424030154	0.0	0.671743493226435	-0.5998000279251806	0.0	0.6368947529210223	-0.6693995191140422	0.0	0.8179973292280087	-0.579851836454874	0.0	0.7816693436181311	-0.5851601183858173	0.0	0.7500341278592564	-0.6298908912023548	0.0
39	1.3098484848484848	0.6830275933332397	-0.5485296665665926	0.0	0.6711268127042596	-0.550990265544042	0.0	0.6143503180027389	-0.6497491273865498	0.0	0.5461145521828639	-0.6515529831757911	0.0	0.5304965237475869	-0.6993392874653361	0.0	0.52096566692658	-0.6932716222286479	0.0	0.5321599532147261	-0.6434335710967265	0.0	0.7015935580367022	-0.5414678175215206	0.0	0.6480387888950023	-0.6342724863607021	0.0	0.5982506204072584	-0.6604338112201688	0.0	0.5452823780071667	-0.6951236457394975	0.0	0.5612608601573168	-0.6859433684348993	0.0	0.5749244187448532	-0.6497625901169776	0.0	0.7993632219125179	-0.6034707932948774	0.0	0.86539817628842	-0.6330068021754891	0.0	0.8246307345365449	-0.6381759184046386	0.0	0.7609743480655359	-0.6036288704202307	0.0	0.6702353762857468	-0.6231107428351021	0.0	0.6425166859030211	-0.6977001248835033	0.0	0.8097108741776106	-0.5861411109464557	0.0	0.7759733928012577	-0.6085808764849814	0.0	0.7515931157381279	-0.6600765936952573	0.0
40	1.3434343434343434	0.666255087302058	-0.588316164004506	0.0	0.6553596366136635	-0.5885347653193415	0.0	0.6115940739352328	-0.6941977939877073	0.0	0.5407992466867988	-0.7327338198729817	0.0	0.5361466905461483	-0.7842275510385712	0.0	0.524964544646782	-0.7792055819280641	0.0	0.5237395597783893	-0.7304405783663666	0.0	0.6835028371487609	-0.5843307621949645	0.0	0.6354277664794895	-0.686060216019247	0.0	0.5843867862695848	-0.7365902306376171	0.0	0.5493600956320978	-0.7773213807147955	0.0	0.5643653126645858	-0.7677085685557734	0.0	0.559909663004822	-0.7336710295248212	0.0	0.7888488233047718	-0.6124282698315325	0.0	0.8598725766692337	-0.6271073520446527	0.0	0.8201949277800133	-0.6415413769540117	0.0	0.7518886257318702	-0.6168371786844221	0.0	0.668137800326164	-0.6499557602949504	0.0	0.6502914233902051	-0.7282034890360053	0.0	0.7974660612543513	-0.5978834439611623	0.0	0.7700485114521763	-0.6352669043414193	0.0	0.756109792233073	-0.6914621710341715	0.0
41	1.377020202020202	0.6499773110598638	-0.6341360658252969	0.0	0.6398351571889291	-0.6328047840325329	0.0	0.6078882753171438	-0.7429384922517243	0.0	0.5429969543742316	-0.8127733318057531	0.0	0.5501970388013219	-0.8634826666939242	0.0	0.5378812509296186	-0.8588211429516031	0.0	0.5246278258104149	-0.8162966052123113	0.0	0.6661134572895383	-0.6337266774926854	0.0	0.6263734825527278	-0.7399755585536276	0.0	0.576711688300214	-0.812021780487763	0.0	0.5641598402193643	-0.8534998917177422	0.0	0.575405240770052	-0.844523506810091	0.0	0.5533737471363789	-0.8155542681542806	0.0	0.7744174434071573	-0.6268126035898623	0.0	0.8472290130098451	-0.6246161089876041	0.0	0.8107213716930095	-0.6487583147791582	0.0	0.7388981388992902	-0.6342237256811945	0.0	0.6655705871316188	-0.6793348500016386	0.0	0.6601385033324929	-0.7578172402188671	0.0	0.7821086171261674	-0.615960181450369	0.0	0.7646441057996648	-0.6640257404669176	0.0	0.7638621926314301	-0.7214584208769745	0.0
